<svg width="256px" height="256px" viewBox="-2.4 -2.4 28.80 28.80" id="Layer_1" data-name="Layer 1" xmlns="http://www.w3.org/2000/svg" fill="#000000" transform="matrix(1, 0, 0, 1, 0, 0)rotate(0)" stroke="#000000"><g id="SVGRepo_bgCarrier" stroke-width="0"></g><g id="SVGRepo_tracerCarrier" stroke-linecap="round" stroke-linejoin="round" stroke="#CCCCCC" stroke-width="0.048"></g><g id="SVGRepo_iconCarrier"><defs><style>.cls-1{fill:none;stroke:#020202;stroke-miterlimit:10;stroke-width:2.4;}</style></defs><path class="cls-1" d="M13.91,8.18h1.91a1.91,1.91,0,0,1,1.91,1.91v3.82a1.91,1.91,0,0,1-1.91,1.91H13.91a0,0,0,0,1,0,0V8.18A0,0,0,0,1,13.91,8.18Z"></path><polygon class="cls-1" points="10.09 8.18 10.09 12.96 6.27 12.96 6.27 12 9.14 8.18 10.09 8.18"></polygon><line class="cls-1" x1="10.09" y1="16.77" x2="10.09" y2="12.95"></line><path class="cls-1" d="M22.5,2.45v19.1A31,31,0,0,0,12,19.64,31,31,0,0,0,1.5,21.55V2.45A31,31,0,0,0,12,4.36,31,31,0,0,0,22.5,2.45Z"></path></g></svg>